Coordinates
version=1
nRows=12
nColumns=23
inDegrees=yes

Units are S.I. units (second, meters, Newtons, ...)
If the header above contains a line with 'inDegrees', this indicates whether rotational values are in degrees (yes) or radians (no).

endheader
time	pelvis_tilt	pelvis_list	pelvis_rotation	pelvis_tx	pelvis_ty	pelvis_tz	hip_flexion_r	hip_adduction_r	hip_rotation_r	knee_angle_r	knee_angle_r_beta	ankle_angle_r	subtalar_angle_r	mtp_angle_r	hip_flexion_l	hip_adduction_l	hip_rotation_l	knee_angle_l	knee_angle_l_beta	ankle_angle_l	subtalar_angle_l	mtp_angle_l
     22.50000000	     -8.59372649	      7.47592975	      2.30894598	      2.28267071	      1.06966297	      0.99115423	    -12.51128200	    -10.83266017	    -23.31114793	     46.75180906	      0.81597300	    -16.69842989	     -9.53777847	      0.00000000	     29.12027519	     10.97108207	    -14.53168758	      8.86337538	      0.15469508	      8.09985112	     10.68755523	      0.00000000
     22.50666667	     -8.15417996	      7.57452694	      2.44104699	      2.28208500	      1.06672634	      0.99065918	    -12.19677665	    -11.09307743	    -22.54151274	     49.83384581	      0.86976469	    -16.57854596	    -10.55649112	      0.00000000	     28.28226534	     11.32478649	    -14.10034987	      7.83715163	      0.13678410	      8.21257494	     11.10503540	      0.00000000
     22.51333333	     -7.59099246	      7.64813675	      2.82402864	      2.28142760	      1.06355342	      0.99006189	    -12.04493615	    -11.27232064	    -22.14866093	     52.89818205	      0.92324745	    -16.55116423	    -11.51867699	      0.00000000	     27.56093312	     11.61874214	    -13.71470714	      7.75345906	      0.13532339	      8.39163361	     11.14639612	      0.00000000
     22.52000000	     -7.07060234	      7.97777391	      3.13065511	      2.28069610	      1.05985611	      0.98966868	    -11.75452472	    -11.81667886	    -21.84502849	     56.13109179	      0.97967236	    -16.80088965	    -12.53106191	      0.00000000	     27.01066836	     12.02278861	    -13.74209879	      8.23513901	      0.14373029	      8.20407351	     10.72450743	      0.00000000
     22.52666667	     -6.90972196	      8.27627653	      3.56795485	      2.27963229	      1.05520289	      0.98922374	    -10.95931924	    -12.36254156	    -21.60777093	     59.55532013	      1.03943642	    -16.94095358	    -13.61181423	      0.00000000	     27.22601034	     12.25045194	    -14.29467146	      9.83914659	      0.17172550	      8.09075675	     10.40186769	      0.00000000
     22.53333333	     -6.50751094	      8.46252413	      4.07909572	      2.27855166	      1.05040220	      0.98890151	    -10.42801968	    -12.72427212	    -21.47656421	     62.85806352	      1.09708017	    -17.32380545	    -14.87359815	      0.00000000	     27.65292863	     12.03666768	    -16.05776934	     12.85809008	      0.22441601	      8.53531405	     11.36367982	      0.00000000
     22.54000000	     -6.29783725	      8.71854896	      4.63228027	      2.27733653	      1.04502657	      0.98870510	     -9.61612211	    -13.20277897	    -21.38841597	     66.23610705	      1.15603815	    -17.76221767	    -16.24604434	      0.00000000	     28.06517774	     12.01905092	    -16.69188368	     15.66224748	      0.27335779	      8.23646953	     10.41687460	      0.00000000
     22.54666667	     -5.98733515	      8.88872045	      5.11283869	      2.27605048	      1.03946873	      0.98882435	     -8.81987664	    -13.55632127	    -21.18682686	     69.55570758	      1.21397611	    -18.24913208	    -17.69971827	      0.00000000	     28.48951909	     11.72947203	    -17.57124644	     19.02526999	      0.33205360	      8.16502854	      9.77188006	      0.00000000
     22.55333333	     -5.80753070	      9.07716068	      5.64331845	      2.27460760	      1.03354531	      0.98890804	     -7.81966242	    -13.96699819	    -21.00898847	     72.88195688	      1.27203011	    -18.74309823	    -19.19975172	      0.00000000	     28.95154798	     11.58386634	    -17.77800061	     22.35926006	      0.39024271	      8.01790158	      8.35544674	      0.00000000
     22.56000000	     -5.71462487	      9.26446371	      6.15197046	      2.27292872	      1.02737282	      0.98900946	     -6.62401782	    -14.41755279	    -20.76546947	     76.20692880	      1.33006182	    -19.18166411	    -20.67662423	      0.00000000	     29.46739277	     11.52166378	    -17.57956254	     25.74689764	      0.44936814	      8.15804806	      6.65230641	      0.00000000
     22.56666667	     -5.76585620	      9.45208567	      6.61355295	      2.27096485	      1.02100682	      0.98910267	     -5.13815019	    -14.91927679	    -20.38970100	     79.53633622	      1.38817094	    -19.49827415	    -22.03790165	      0.00000000	     30.08757731	     11.56953722	    -17.05186068	     29.10319258	      0.50794653	      8.61533376	      4.74141539	      0.00000000
     22.57333333	     -5.87924262	      9.63173297	      7.11487475	      2.26875189	      1.01466644	      0.98899953	     -3.51503932	    -15.45151092	    -19.99181436	     82.79316298	      1.44501329	    -19.69509680	    -23.23656007	      0.00000000	     30.70186803	     11.76766838	    -16.20347194	     32.39086025	      0.56532716	      9.52389035	      2.92452252	      0.00000000
